<svg width="28" height="28" viewBox="0 0 28 28" fill="none" xmlns="http://www.w3.org/2000/svg">
<path d="M14 25.6667V11.6667M8.16663 18.6667C7.01748 18.668 5.90826 18.2452 5.05148 17.4794C4.1947 16.7136 3.6506 15.6586 3.52343 14.5165C3.39625 13.3744 3.69495 12.2255 4.36229 11.29C5.02963 10.3545 6.01868 9.69805 7.13996 9.44652C6.81554 7.93346 7.10546 6.3535 7.94595 5.0542C8.78644 3.7549 10.1087 2.8427 11.6217 2.51827C13.1348 2.19385 14.7147 2.48377 16.014 3.32426C17.3133 4.16475 18.2255 5.48696 18.55 7.00002H18.6666C20.1132 6.99857 21.5088 7.53468 22.5824 8.50429C23.6559 9.4739 24.3309 10.8078 24.4763 12.2471C24.6217 13.6864 24.2271 15.1284 23.3691 16.2931C22.5111 17.4578 21.251 18.2622 19.8333 18.55L8.16663 18.6667ZM10.5 22.1667L14 25.6667L10.5 22.1667ZM14 25.6667L17.5 22.1667L14 25.6667Z" stroke="#838383" stroke-width="2.33333" stroke-linecap="round" stroke-linejoin="round"/>
</svg>
