<svg width="34" height="34" viewBox="0 0 34 34" fill="none" xmlns="http://www.w3.org/2000/svg">
<path d="M11.3333 22.6666H8.49996C7.74851 22.6666 7.02784 22.3681 6.49649 21.8368C5.96514 21.3054 5.66663 20.5847 5.66663 19.8333V8.49996C5.66663 7.74851 5.96514 7.02784 6.49649 6.49649C7.02784 5.96514 7.74851 5.66663 8.49996 5.66663H19.8333C20.5847 5.66663 21.3054 5.96514 21.8368 6.49649C22.3681 7.02784 22.6666 7.74851 22.6666 8.49996V11.3333L11.3333 22.6666ZM14.1666 28.3333H25.5C26.2514 28.3333 26.9721 28.0348 27.5034 27.5034C28.0348 26.9721 28.3333 26.2514 28.3333 25.5V14.1666C28.3333 13.4152 28.0348 12.6945 27.5034 12.1632C26.9721 11.6318 26.2514 11.3333 25.5 11.3333H14.1666C13.4152 11.3333 12.6945 11.6318 12.1632 12.1632C11.6318 12.6945 11.3333 13.4152 11.3333 14.1666V25.5C11.3333 26.2514 11.6318 26.9721 12.1632 27.5034C12.6945 28.0348 13.4152 28.3333 14.1666 28.3333Z" stroke="#838383" stroke-width="2.83333" stroke-linecap="round" stroke-linejoin="round"/>
<rect x="12.7548" y="12.7457" width="13.9509" height="13.3571" rx="2.42857" fill="#242424"/>
</svg>
