<svg width="28" height="28" viewBox="0 0 28 28" fill="none" xmlns="http://www.w3.org/2000/svg">
<path d="M14.0001 4.66675V5.83341V4.66675ZM21.0001 18.6667H23.3334H21.0001ZM16.3334 18.6667H14.0001V23.3334L16.3334 18.6667ZM14.0001 10.5001V14.0001V10.5001ZM14.0001 14.0001H14.0117H14.0001ZM14.0001 14.0001H18.6784H14.0001ZM18.6667 23.3334H23.3334H18.6667ZM4.66675 14.0001H9.33341H4.66675ZM23.3334 14.0001H23.3451H23.3334ZM5.83341 9.33342H8.16675C8.47617 9.33342 8.77291 9.2105 8.99171 8.99171C9.2105 8.77291 9.33341 8.47617 9.33341 8.16675V5.83341C9.33341 5.524 9.2105 5.22725 8.99171 5.00846C8.77291 4.78966 8.47617 4.66675 8.16675 4.66675H5.83341C5.524 4.66675 5.22725 4.78966 5.00846 5.00846C4.78966 5.22725 4.66675 5.524 4.66675 5.83341V8.16675C4.66675 8.47617 4.78966 8.77291 5.00846 8.99171C5.22725 9.2105 5.524 9.33342 5.83341 9.33342ZM19.8334 9.33342H22.1667C22.4762 9.33342 22.7729 9.2105 22.9917 8.99171C23.2105 8.77291 23.3334 8.47617 23.3334 8.16675V5.83341C23.3334 5.524 23.2105 5.22725 22.9917 5.00846C22.7729 4.78966 22.4762 4.66675 22.1667 4.66675H19.8334C19.524 4.66675 19.2272 4.78966 19.0085 5.00846C18.7897 5.22725 18.6667 5.524 18.6667 5.83341V8.16675C18.6667 8.47617 18.7897 8.77291 19.0085 8.99171C19.2272 9.2105 19.524 9.33342 19.8334 9.33342ZM5.83341 23.3334H8.16675C8.47617 23.3334 8.77291 23.2105 8.99171 22.9917C9.2105 22.7729 9.33341 22.4762 9.33341 22.1667V19.8334C9.33341 19.524 9.2105 19.2272 8.99171 19.0085C8.77291 18.7897 8.47617 18.6667 8.16675 18.6667H5.83341C5.524 18.6667 5.22725 18.7897 5.00846 19.0085C4.78966 19.2272 4.66675 19.524 4.66675 19.8334V22.1667C4.66675 22.4762 4.78966 22.7729 5.00846 22.9917C5.22725 23.2105 5.524 23.3334 5.83341 23.3334Z" stroke="#838383" stroke-width="2.33333" stroke-linecap="round" stroke-linejoin="round"/>
</svg>
